<svg width="615.4146362304688px" height="160.4px" xmlns="http://www.w3.org/2000/svg" viewBox="-57.707318115234386 -5.200000000000003 615.4146362304688 160.4" style="background: rgba(0, 0, 0, 0);" preserveAspectRatio="xMidYMid"><defs><filter id="editing-hole" x="-100%" y="-100%" width="300%" height="300%"><feFlood flood-color="#000" result="black"></feFlood><feMorphology operator="dilate" radius="2" in="SourceGraphic" result="erode"></feMorphology><feGaussianBlur in="erode" stdDeviation="4" result="blur"></feGaussianBlur><feOffset in="blur" dx="2" dy="2" result="offset"></feOffset><feComposite operator="atop" in="offset" in2="black" result="merge"></feComposite><feComposite operator="in" in="merge" in2="SourceGraphic" result="inner-shadow"></feComposite></filter></defs><g filter="url(#editing-hole)"><g transform="translate(31.081076681613922, 115.94000434875488)"><path d="M59.27-36.93L59.27-36.93L59.27-36.93Q59.27 0.98 18.16 0.98L18.16 0.98L18.16 0.98Q11.57 0.98 0.71-0.62L0.71-0.62L10.68-53.22L10.68-53.22Q11.39-56.78 11.84-58.83L11.84-58.83L11.84-58.83Q25.36-59.81 31.37-59.81L31.37-59.81L31.37-59.81Q37.38-59.81 42.90-58.56L42.90-58.56L42.90-58.56Q48.42-57.32 52.06-54.56L52.06-54.56L52.06-54.56Q59.27-49.13 59.27-36.93ZM40.94-40.23L40.94-40.23L40.94-40.23Q40.94-53.49 31.42-53.49L31.42-53.49L30.53-53.49L30.53-53.49Q30.08-53.49 29.64-53.40L29.64-53.40L20.47-5.61L20.47-5.61Q20.83-5.43 21.18-5.43L21.18-5.43L21.89-5.43L21.89-5.43Q25.19-5.43 28.61-7.48L28.61-7.48L28.61-7.48Q32.04-9.52 34.71-13.71L34.71-13.71L34.71-13.71Q40.94-23.41 40.94-40.23ZM99.86-15.04L99.86-15.04L99.86-15.04Q102.08-13.53 102.08-10.19L102.08-10.19L102.08-10.19Q102.08-6.85 100.39-4.72L100.39-4.72L100.39-4.72Q98.70-2.58 95.94-1.16L95.94-1.16L95.94-1.16Q90.25 1.78 84.10 1.78L84.10 1.78L84.10 1.78Q77.96 1.78 74.36 0.44L74.36 0.44L74.36 0.44Q70.75-0.89 68.35-3.38L68.35-3.38L68.35-3.38Q63.63-8.10 63.63-16.73L63.63-16.73L63.63-16.73Q63.63-30.17 70.93-38.36L70.93-38.36L70.93-38.36Q78.77-47.17 92.38-47.17L92.38-47.17L92.38-47.17Q100.84-47.17 105.02-43.61L105.02-43.61L105.02-43.61Q108.13-40.94 108.13-36.58L108.13-36.58L108.13-36.58Q108.13-20.91 81.08-20.91L81.08-20.91L81.08-20.91Q80.72-18.60 80.72-16.64L80.72-16.64L80.72-16.64Q80.72-12.55 82.55-10.99L82.55-10.99L82.55-10.99Q84.37-9.43 87.75-9.43L87.75-9.43L87.75-9.43Q91.14-9.43 94.74-10.99L94.74-10.99L94.74-10.99Q98.34-12.55 99.86-15.04ZM81.70-24.74L81.70-24.74L81.70-24.74Q88.02-24.74 91.67-28.66L91.67-28.66L91.67-28.66Q95.32-32.40 95.32-38.36L95.32-38.36L95.32-38.36Q95.32-40.41 94.56-41.52L94.56-41.52L94.56-41.52Q93.81-42.63 92.29-42.63L92.29-42.63L92.29-42.63Q90.78-42.63 89.49-42.05L89.49-42.05L89.49-42.05Q88.20-41.47 86.86-39.52L86.86-39.52L86.86-39.52Q83.57-35.07 81.70-24.74ZM143.47-43.88L143.47-43.88L143.47-43.88Q146.41-47.17 151.48-47.17L151.48-47.17L151.48-47.17Q154.59-47.17 157.00-45.48L157.00-45.48L157.00-45.48Q159.40-43.79 159.40-40.63L159.40-40.63L159.40-40.63Q159.40-37.47 158.42-34.09L158.42-34.09L158.42-34.09Q157.44-30.70 155.93-27.23L155.93-27.23L155.93-27.23Q152.90-20.47 148.72-14.86L148.72-14.86L148.72-14.86Q142.84-6.76 137.19-2.49L137.19-2.49L137.19-2.49Q131.54 1.78 125.40 1.78L125.40 1.78L125.40 1.78Q120.42 1.78 117.39 0.62L117.39 0.62L117.39 0.62Q116.86-18.07 116.19-24.74L116.19-24.74L116.19-24.74Q115.52-31.42 114.99-35.07L114.99-35.07L114.99-35.07Q114.10-42.19 111.43-43.88L111.43-43.88L111.43-43.88Q113.47-45.66 115.48-46.41L115.48-46.41L115.48-46.41Q117.48-47.17 121.62-47.17L121.62-47.17L121.62-47.17Q125.76-47.17 128.69-43.92L128.69-43.92L128.69-43.92Q131.63-40.67 132.21-34.93L132.21-34.93L132.21-34.93Q132.79-29.19 132.79-22.25L132.79-22.25L132.79-22.25Q132.79-15.31 132.25-6.94L132.25-6.94L132.25-6.94Q135.01-8.90 137.95-14.86L137.95-14.86L137.95-14.86Q141.95-23.14 143.38-33.11L143.38-33.11L143.38-33.11Q143.82-36.13 143.82-39.34L143.82-39.34L143.82-39.34Q143.82-42.54 143.47-43.88ZM197.85-15.04L197.85-15.04L197.85-15.04Q200.07-13.53 200.07-10.19L200.07-10.19L200.07-10.19Q200.07-6.85 198.38-4.72L198.38-4.72L198.38-4.72Q196.69-2.58 193.93-1.16L193.93-1.16L193.93-1.16Q188.23 1.78 182.09 1.78L182.09 1.78L182.09 1.78Q175.95 1.78 172.35 0.44L172.35 0.44L172.35 0.44Q168.74-0.89 166.34-3.38L166.34-3.38L166.34-3.38Q161.62-8.10 161.62-16.73L161.62-16.73L161.62-16.73Q161.62-30.17 168.92-38.36L168.92-38.36L168.92-38.36Q176.75-47.17 190.37-47.17L190.37-47.17L190.37-47.17Q198.83-47.17 203.01-43.61L203.01-43.61L203.01-43.61Q206.12-40.94 206.12-36.58L206.12-36.58L206.12-36.58Q206.12-20.91 179.07-20.91L179.07-20.91L179.07-20.91Q178.71-18.60 178.71-16.64L178.71-16.64L178.71-16.64Q178.71-12.55 180.54-10.99L180.54-10.99L180.54-10.99Q182.36-9.43 185.74-9.43L185.74-9.43L185.74-9.43Q189.13-9.43 192.73-10.99L192.73-10.99L192.73-10.99Q196.33-12.55 197.85-15.04ZM179.69-24.74L179.69-24.74L179.69-24.74Q186.01-24.74 189.66-28.66L189.66-28.66L189.66-28.66Q193.31-32.40 193.31-38.36L193.31-38.36L193.31-38.36Q193.31-40.41 192.55-41.52L192.55-41.52L192.55-41.52Q191.79-42.63 190.28-42.63L190.28-42.63L190.28-42.63Q188.77-42.63 187.48-42.05L187.48-42.05L187.48-42.05Q186.19-41.47 184.85-39.52L184.85-39.52L184.85-39.52Q181.56-35.07 179.69-24.74ZM230.42-4.89L230.42-4.89L230.42-4.89Q227.66 1.78 218.85 1.78L218.85 1.78L218.85 1.78Q214.40 1.78 211.55-1.33L211.55-1.33L211.55-1.33Q209.24-3.92 209.24-6.85L209.24-6.85L209.24-6.85Q209.24-13.53 212.35-28.12L212.35-28.12L218.85-62.30L236.92-64.08L228.28-19.05L228.28-19.05Q226.77-12.46 226.77-10.15L226.77-10.15L226.77-10.15Q226.77-5.07 230.42-4.89ZM257.39 1.78L257.39 1.78L257.39 1.78Q237.81 1.78 237.81-16.64L237.81-16.64L237.81-16.64Q237.81-29.73 245.02-38.18L245.02-38.18L245.02-38.18Q252.67-47.17 265.93-47.17L265.93-47.17L265.93-47.17Q275.54-47.17 280.44-42.72L280.44-42.72L280.44-42.72Q285.33-38.27 285.33-28.92L285.33-28.92L285.33-28.92Q285.33-14.68 277.68-6.41L277.68-6.41L277.68-6.41Q270.20 1.78 257.39 1.78ZM259.70-36.93L259.70-36.93L259.70-36.93Q258.63-34.53 257.79-30.93L257.79-30.93L257.79-30.93Q256.94-27.32 255.88-21.63L255.88-21.63L255.88-21.63Q254.81-15.93 254.81-8.90L254.81-8.90L254.81-8.90Q254.81-6.59 255.56-5.07L255.56-5.07L255.56-5.07Q256.32-3.56 258.37-3.56L258.37-3.56L258.37-3.56Q260.41-3.56 261.70-4.54L261.70-4.54L261.70-4.54Q263.00-5.52 263.97-7.83L263.97-7.83L263.97-7.83Q265.75-11.93 267.18-19.54L267.18-19.54L267.18-19.54Q268.60-27.14 268.74-30.44L268.74-30.44L268.74-30.44Q268.87-33.73 268.87-36.18L268.87-36.18L268.87-36.18Q268.87-38.63 268.16-40.23L268.16-40.23L268.16-40.23Q267.44-41.83 265.44-41.83L265.44-41.83L265.44-41.83Q263.44-41.83 262.11-40.58L262.11-40.58L262.11-40.58Q260.77-39.34 259.70-36.93ZM332.06-6.10L332.06-6.10L332.06-6.10Q328.32-2.31 323.20-0.27L323.20-0.27L323.20-0.27Q318.09 1.78 313.01 1.78L313.01 1.78L313.01 1.78Q307.94 1.78 306.16 0.89L306.16 0.89L303.40 16.02L285.33 17.80L297.62-45.39L312.12-46.90L310.97-40.76L310.97-40.76Q314.70-47.08 322.45-47.08L322.45-47.08L322.45-47.08Q331.17-47.08 335.80-41.47L335.80-41.47L335.80-41.47Q339.89-36.40 339.89-28.66L339.89-28.66L339.89-28.66Q339.89-20.91 337.84-15.40L337.84-15.40L337.84-15.40Q335.80-9.88 332.06-6.10ZM311.94-31.06L307.23-4.98L307.23-4.98Q309.10-3.38 311.41-3.38L311.41-3.38L311.41-3.38Q313.73-3.38 315.06-4.27L315.06-4.27L315.06-4.27Q316.39-5.16 317.37-6.94L317.37-6.94L317.37-6.94Q320.04-11.75 322.18-26.34L322.18-26.34L322.18-26.34Q322.80-30.62 322.80-34.80L322.80-34.80L322.80-34.80Q322.80-38.98 321.87-40.32L321.87-40.32L321.87-40.32Q320.93-41.65 319.15-41.65L319.15-41.65L319.15-41.65Q313.73-41.65 311.94-31.06L311.94-31.06ZM381.28-15.04L381.28-15.04L381.28-15.04Q383.50-13.53 383.50-10.19L383.50-10.19L383.50-10.19Q383.50-6.85 381.81-4.72L381.81-4.72L381.81-4.72Q380.12-2.58 377.36-1.16L377.36-1.16L377.36-1.16Q371.66 1.78 365.52 1.78L365.52 1.78L365.52 1.78Q359.38 1.78 355.78 0.44L355.78 0.44L355.78 0.44Q352.17-0.89 349.77-3.38L349.77-3.38L349.77-3.38Q345.05-8.10 345.05-16.73L345.05-16.73L345.05-16.73Q345.05-30.17 352.35-38.36L352.35-38.36L352.35-38.36Q360.18-47.17 373.80-47.17L373.80-47.17L373.80-47.17Q382.25-47.17 386.44-43.61L386.44-43.61L386.44-43.61Q389.55-40.94 389.55-36.58L389.55-36.58L389.55-36.58Q389.55-20.91 362.50-20.91L362.50-20.91L362.50-20.91Q362.14-18.60 362.14-16.64L362.14-16.64L362.14-16.64Q362.14-12.55 363.97-10.99L363.97-10.99L363.97-10.99Q365.79-9.43 369.17-9.43L369.17-9.43L369.17-9.43Q372.55-9.43 376.16-10.99L376.16-10.99L376.16-10.99Q379.76-12.55 381.28-15.04ZM363.12-24.74L363.12-24.74L363.12-24.74Q369.44-24.74 373.09-28.66L373.09-28.66L373.09-28.66Q376.74-32.40 376.74-38.36L376.74-38.36L376.74-38.36Q376.74-40.41 375.98-41.52L375.98-41.52L375.98-41.52Q375.22-42.63 373.71-42.63L373.71-42.63L373.71-42.63Q372.20-42.63 370.91-42.05L370.91-42.05L370.91-42.05Q369.62-41.47 368.28-39.52L368.28-39.52L368.28-39.52Q364.99-35.07 363.12-24.74ZM420.44-25.01L420.44-25.01L420.44-25.01Q423.64-30.70 423.64-36.49L423.64-36.49L423.64-36.49Q423.64-40.32 420.88-40.32L420.88-40.32L420.88-40.32Q418.75-40.32 416.52-36.67L416.52-36.67L416.52-36.67Q414.21-33.02 413.49-28.30L413.49-28.30L408.87 0L390.44 1.78L399.52-45.39L414.21-47.17L412.60-38.18L412.60-38.18Q416.97-47.17 426.76-47.17L426.76-47.17L426.76-47.17Q431.92-47.17 434.72-44.50L434.72-44.50L434.72-44.50Q437.52-41.83 437.52-36.36L437.52-36.36L437.52-36.36Q437.52-30.88 433.92-27.41L433.92-27.41L433.92-27.41Q430.32-23.94 424.17-23.94L424.17-23.94L424.17-23.94Q421.50-23.94 420.44-25.01Z" fill="#ccc"></path></g></g><style>text {
  font-size: 64px;
  font-family: Arial Black;
  dominant-baseline: central;
  text-anchor: middle;
}</style></svg>